<svg width="16" height="16" viewBox="0 0 16 16" fill="none" xmlns="http://www.w3.org/2000/svg">
<path d="M6.4 8.2449V6.39735C6.4 6.38078 6.38657 6.36735 6.37 6.36735H5.15H3.93C3.91343 6.36735 3.9 6.38078 3.9 6.39735V8.2449V10.1224V11.97C3.9 11.9866 3.91343 12 3.93 12H5.15H6.37C6.38657 12 6.4 11.9866 6.4 11.97V10.1224V8.2449Z" fill="#3177FF"/>
<path d="M5.15 6.36735H3.93C3.91343 6.36735 3.9 6.38078 3.9 6.39735V8.2449V10.1224V11.97C3.9 11.9866 3.91343 12 3.93 12H5.15M5.15 6.36735H6.37C6.38657 6.36735 6.4 6.38078 6.4 6.39735V8.2449V10.1224V11.97C6.4 11.9866 6.38657 12 6.37 12H5.15M5.15 6.36735V4M5.15 14.3673V12" stroke="#3177FF" stroke-linecap="round"/>
<path d="M12.1 5.94491V4.09736C12.1 4.08079 12.0866 4.06736 12.07 4.06736H10.85H9.63001C9.61344 4.06736 9.60001 4.08079 9.60001 4.09736V5.94491V7.82246V9.67001C9.60001 9.68658 9.61344 9.70001 9.63001 9.70001H10.85H12.07C12.0866 9.70001 12.1 9.68658 12.1 9.67001V7.82246V5.94491Z" fill="#FF3131"/>
<path d="M10.85 4.06736H9.63001C9.61344 4.06736 9.60001 4.08079 9.60001 4.09736V5.94491V7.82246V9.67001C9.60001 9.68658 9.61344 9.70001 9.63001 9.70001H10.85M10.85 4.06736H12.07C12.0866 4.06736 12.1 4.08079 12.1 4.09736V5.94491V7.82246V9.67001C12.1 9.68658 12.0866 9.70001 12.07 9.70001H10.85M10.85 4.06736V1.70001M10.85 12.0674V9.70001" stroke="#FF3131" stroke-linecap="round"/>
</svg>
