<svg width="12" height="13" viewBox="0 0 12 13" fill="none" xmlns="http://www.w3.org/2000/svg">
<path fill-rule="evenodd" clip-rule="evenodd" d="M10.4259 5.85003C10.54 5.91582 10.6348 6.01051 10.7007 6.12458C10.7666 6.23864 10.8013 6.36804 10.8013 6.49978C10.8013 6.63151 10.7666 6.76091 10.7007 6.87498C10.6348 6.98904 10.54 7.08373 10.4259 7.14953L2.94887 11.4665C2.83486 11.5324 2.70552 11.567 2.57387 11.567C2.44222 11.567 2.31289 11.5324 2.19888 11.4665C2.08486 11.4007 1.99018 11.306 1.92436 11.192C1.85853 11.078 1.82387 10.9487 1.82387 10.817L1.82387 2.18302C1.82387 2.05137 1.85853 1.92204 1.92436 1.80803C1.99019 1.69402 2.08486 1.59934 2.19888 1.53352C2.31289 1.4677 2.44222 1.43304 2.57387 1.43304C2.70553 1.43304 2.83486 1.4677 2.94887 1.53353L10.4259 5.85003Z" fill="black"/>
</svg>
