<svg width="800" height="648" viewBox="0 0 800 648" fill="none" xmlns="http://www.w3.org/2000/svg">
<path d="M436 128C436 100.386 458.386 78 486 78H646C673.614 78 696 100.386 696 128V648H436V128Z" fill="#C2C2C2"/>
<rect y="644" width="800" height="4" fill="#9C9C9C"/>
<path d="M104 311C104 283.386 126.386 261 154 261H314C341.614 261 364 283.386 364 311V644H104V311Z" fill="#E9E9E9"/>
<rect width="80" height="228.666" rx="40" transform="matrix(0.759498 0.650509 -0.655456 0.755234 281.881 92)" fill="#1AA76E"/>
<rect width="80" height="253.624" rx="40" transform="matrix(-0.714228 0.699913 -0.695233 -0.718785 470.392 273.858)" fill="#1AA76E"/>
<rect width="80" height="384.933" rx="40" transform="matrix(0.759498 0.650509 -0.655456 0.755234 614.306 -15.5303)" fill="#1AA76E"/>
</svg>
