<svg width="18" height="19" viewBox="0 0 18 19" fill="none" xmlns="http://www.w3.org/2000/svg">
<path fill-rule="evenodd" clip-rule="evenodd" d="M2.85481 5.1547C3.52991 4.47981 4.44542 4.10067 5.40001 4.10067C6.3546 4.10067 7.27011 4.47981 7.94521 5.1547L9.00001 6.2086L10.0548 5.1547C10.3869 4.81086 10.7841 4.53661 11.2234 4.34794C11.6626 4.15926 12.135 4.05995 12.613 4.0558C13.091 4.05165 13.565 4.14273 14.0074 4.32374C14.4499 4.50475 14.8518 4.77207 15.1898 5.11008C15.5278 5.44809 15.7952 5.85004 15.9762 6.29247C16.1572 6.73489 16.2483 7.20894 16.2441 7.68695C16.24 8.16495 16.1406 8.63734 15.952 9.07656C15.7633 9.51577 15.489 9.91301 15.1452 10.2451L9.00001 16.3912L2.85481 10.2451C2.17992 9.57 1.80078 8.65449 1.80078 7.6999C1.80078 6.74531 2.17992 5.8298 2.85481 5.1547Z" fill="#E37871" stroke="#E37871" stroke-width="2" stroke-linejoin="round"/>
</svg>
