<svg width="28" height="28" viewBox="0 0 28 28" fill="none" xmlns="http://www.w3.org/2000/svg">
<path fill-rule="evenodd" clip-rule="evenodd" d="M24.8 14.2555C24.8 13.4578 24.7284 12.6907 24.5955 11.9543H14V16.3061H20.0545C19.7938 17.7123 19.0011 18.9038 17.8097 19.7015V22.5242H21.4455C23.5727 20.5657 24.8 17.6816 24.8 14.2555Z" fill="#4285F4"/>
<path fill-rule="evenodd" clip-rule="evenodd" d="M14.0002 25.25C17.0377 25.25 19.5843 24.2426 21.4456 22.5244L17.8098 19.7017C16.8025 20.3767 15.5138 20.7755 14.0002 20.7755C11.0701 20.7755 8.58996 18.7965 7.7053 16.1375H3.94678V19.0522C5.79791 22.7289 9.60246 25.25 14.0002 25.25Z" fill="#34A853"/>
<path fill-rule="evenodd" clip-rule="evenodd" d="M7.70511 16.1375C7.48011 15.4625 7.35227 14.7415 7.35227 14C7.35227 13.2585 7.48011 12.5375 7.70511 11.8625V8.94775H3.94659C3.18466 10.4665 2.75 12.1847 2.75 14C2.75 15.8154 3.18466 17.5336 3.94659 19.0523L7.70511 16.1375Z" fill="#FBBC05"/>
<path fill-rule="evenodd" clip-rule="evenodd" d="M14.0002 7.22443C15.6519 7.22443 17.1348 7.79205 18.3008 8.90682L21.5275 5.68011C19.5792 3.86477 17.0326 2.75 14.0002 2.75C9.60246 2.75 5.79791 5.27102 3.94678 8.94773L7.7053 11.8625C8.58996 9.20341 11.0701 7.22443 14.0002 7.22443Z" fill="#EA4335"/>
</svg>
