<svg width="22" height="30" viewBox="0 0 22 30" fill="none" xmlns="http://www.w3.org/2000/svg">
<path d="M13.4265 11.15V9.22505C13.4265 8.71451 13.222 8.22488 12.8579 7.86387C12.4939 7.50286 12.0001 7.30005 11.4853 7.30005H4.69118C4.17634 7.30005 3.6826 7.50286 3.31856 7.86387C2.95452 8.22488 2.75 8.71451 2.75 9.22505V20.775C2.75 21.2856 2.95452 21.7752 3.31856 22.1362C3.6826 22.4972 4.17634 22.7 4.69118 22.7H11.4853C12.0001 22.7 12.4939 22.4972 12.8579 22.1362C13.222 21.7752 13.4265 21.2856 13.4265 20.775V18.85M7.60294 15H19.25M19.25 15L16.3382 12.1125M19.25 15L16.3382 17.8875" stroke="#606060" stroke-linecap="round" stroke-linejoin="round"/>
</svg>
