<svg width="18" height="18" viewBox="0 0 18 18" fill="none" xmlns="http://www.w3.org/2000/svg">
<path d="M12.7549 11.7549H11.9649L11.6849 11.4849C12.6649 10.3449 13.2549 8.86488 13.2549 7.25488C13.2549 3.66488 10.3449 0.754883 6.75488 0.754883C3.16488 0.754883 0.254883 3.66488 0.254883 7.25488C0.254883 10.8449 3.16488 13.7549 6.75488 13.7549C8.36488 13.7549 9.84488 13.1649 10.9849 12.1849L11.2549 12.4649V13.2549L16.2549 18.2449L17.7449 16.7549L12.7549 11.7549ZM6.75488 11.7549C4.26488 11.7549 2.25488 9.74488 2.25488 7.25488C2.25488 4.76488 4.26488 2.75488 6.75488 2.75488C9.24488 2.75488 11.2549 4.76488 11.2549 7.25488C11.2549 9.74488 9.24488 11.7549 6.75488 11.7549Z" fill="black"/>
</svg>
