<svg width="12" height="13" viewBox="0 0 12 13" fill="none" xmlns="http://www.w3.org/2000/svg">
<path fill-rule="evenodd" clip-rule="evenodd" d="M10.4259 5.85009C10.54 5.91588 10.6348 6.01057 10.7007 6.12464C10.7666 6.2387 10.8013 6.36811 10.8013 6.49984C10.8013 6.63157 10.7666 6.76097 10.7007 6.87504C10.6348 6.9891 10.54 7.08379 10.4259 7.14959L2.94887 11.4666C2.83486 11.5324 2.70552 11.5671 2.57387 11.5671C2.44222 11.5671 2.31289 11.5324 2.19888 11.4666C2.08486 11.4008 1.99018 11.3061 1.92436 11.1921C1.85853 11.0781 1.82387 10.9487 1.82387 10.8171L1.82387 2.18309C1.82387 2.05144 1.85853 1.9221 1.92436 1.80809C1.99018 1.69408 2.08486 1.59941 2.19888 1.53358C2.31289 1.46776 2.44222 1.4331 2.57387 1.43311C2.70553 1.43311 2.83486 1.46776 2.94887 1.53359L10.4259 5.85059L10.4259 5.85009Z" fill="black"/>
</svg>
